<svg width="240" height="80" viewBox="0 0 240 80" fill="none" xmlns="http://www.w3.org/2000/svg">
<path d="M56.5149 1.55813C53.7134 2.08816 51.4509 4.8648 51.9796 8.11959C44.4434 5.51419 34.7878 6.00941 28.0356 7.27836C26.5214 7.57038 25.1501 7.88939 23.9743 8.23186C23.635 8.32991 23.6351 8.65531 23.9323 8.71642C34.3041 11.0611 38.2997 16.3145 46.3526 17.6083C40.6238 25.4615 40.8653 35.3396 41.5807 37.702C41.7204 38.2711 44.3829 41.764 45.9713 43.1601C46.1481 43.3085 46.386 43.3605 46.5984 43.3207C46.9006 43.2645 47.1706 43.0243 47.1614 42.7032C46.9711 33.5669 48.095 27.6094 51.0089 26.5712C52.8718 25.9119 53.7506 25.6648 54.2892 25.4907C62.1005 23.0671 61.4827 13.7205 61.38 10.3435C61.2317 4.84348 63.9775 3.35357 66.2772 2.923L77.6524 0.780129C78.6659 0.589715 79.2323 0.704817 79.5345 0.649397L79.6135 0.581899C79.5708 0.323278 79.2095 0.012789 78.4277 0H78.3293C78.1128 0.0035525 77.8661 0.02842 77.5876 0.0817075L65.8319 2.2935C64.2655 2.58835 62.9735 2.66722 62.5979 2.56491C61.8304 2.34963 59.0241 1.09133 56.5149 1.55813Z" fill="white"/>
<path d="M240 77.051H238.728V73.8982H237.122L235.337 77.051H233.895L235.764 73.8538C235.065 73.7173 234.065 73.026 234.065 71.7516C234.065 70.3389 235.092 69.5716 236.793 69.5716H240V77.051ZM238.728 70.616H236.75C235.826 70.616 235.335 71.0166 235.335 71.7616C235.337 72.5382 235.826 72.9074 236.75 72.9074H238.728V70.616ZM227.489 69.5716H226.227V77.051H227.551L231.252 71.4524H231.271V77.051H232.548V69.5716H231.218L227.529 75.1694H227.489V69.5716ZM219.586 69.5716H218.319V77.051H219.586V73.6317H223.106V77.051H224.373V69.5716H223.106V72.5852H219.586V69.5716ZM210.279 71.8466C210.279 70.0516 211.521 69.3574 213.384 69.3574C213.986 69.3574 216.173 69.5309 216.173 71.4524V75.7175C216.173 76.033 216.338 76.1889 216.597 76.1889C216.705 76.1889 216.859 76.1609 216.999 76.1353V77.0532C216.792 77.1073 216.602 77.1895 216.319 77.1895C215.198 77.1895 215.037 76.6109 214.98 76.0474C214.483 76.5716 213.732 77.2623 212.253 77.2623C210.878 77.2623 209.906 76.4018 209.906 75.0974C209.906 74.2117 210.13 72.8924 212.787 72.6974C214.766 72.5382 214.91 72.3867 214.91 71.6081C214.91 70.7895 214.347 70.4051 213.151 70.4051C211.707 70.4051 211.521 71.2817 211.445 71.8466H210.279ZM214.91 73.2338C214.709 73.3903 214.399 73.4987 212.825 73.6995C212.198 73.7852 211.2 73.9589 211.2 74.9002C211.2 75.7175 211.642 76.2174 212.587 76.2174C213.768 76.2174 214.91 75.4673 214.91 74.461V73.2338ZM202.541 69.5716H205.975C207.641 69.5716 208.437 70.4488 208.437 71.4867C208.437 72.3688 207.825 72.9074 207.171 73.0902C207.965 73.2775 208.882 73.7852 208.882 75.0681C208.882 76.2609 207.909 77.051 206.115 77.051H202.541V69.5716ZM203.82 72.6667H205.656C206.755 72.6667 207.171 72.3531 207.171 71.5381C207.171 70.9446 206.796 70.616 205.683 70.616H203.82V72.6667ZM203.82 76.0074H206.083C207.063 76.0074 207.609 75.676 207.609 74.8437C207.609 74.0366 206.985 73.6553 205.956 73.6553H203.82V76.0074ZM197.616 69.3574C200.025 69.3574 201.108 71.3816 201.108 73.3017C201.11 75.2259 200.025 77.2623 197.616 77.2623C195.202 77.2623 194.124 75.2259 194.124 73.3017C194.124 71.3816 195.202 69.3574 197.616 69.3574ZM197.616 76.1752C199.428 76.1752 199.809 74.3109 199.809 73.3017C199.809 72.2995 199.428 70.4495 197.616 70.4495C195.809 70.4495 195.418 72.2995 195.418 73.3017C195.418 74.3109 195.809 76.1752 197.616 76.1752ZM186.511 69.5716H187.694V70.6301C188.112 70.0273 188.661 69.3574 189.981 69.3574C191.973 69.3574 193.097 70.9752 193.097 73.0917C193.097 74.8773 192.389 77.2623 189.819 77.2623C188.811 77.2623 188.131 76.7845 187.778 76.1752V80.0002H186.511V69.5716ZM187.778 73.2923C187.778 74.9195 188.427 76.1752 189.802 76.1752C190.606 76.1752 191.803 75.6367 191.803 73.6445C191.803 72.4159 191.667 70.493 189.849 70.493C187.886 70.4923 187.778 72.316 187.778 73.2923ZM179.618 69.5716H178.346V77.051H179.664L183.363 71.4524H183.393V77.051H184.659V69.5716H183.331L179.64 75.1694H179.618V69.5716ZM177.091 72.0895C176.983 70.7889 176.246 69.3574 174.264 69.3574C171.783 69.3574 170.662 71.2109 170.662 73.5181C170.662 75.676 171.917 77.2623 174.021 77.2623C176.235 77.2623 176.959 75.591 177.091 74.4087H175.865C175.653 75.5538 174.922 76.1752 174.067 76.1752C172.33 76.1752 172.015 74.5924 172.015 73.3017C172.015 71.976 172.512 70.4923 174.086 70.493C175.147 70.493 175.701 71.0874 175.865 72.0895H177.091ZM164.431 69.5716H163.164V77.051H164.431V73.6317H167.949V77.051H169.215V69.5716H167.949V72.5852H164.431V69.5716ZM155.119 71.8466C155.119 70.0516 156.369 69.3574 158.234 69.3574C158.834 69.3574 161.023 69.5309 161.023 71.4524V75.7175C161.023 76.033 161.182 76.1889 161.434 76.1889C161.551 76.1889 161.709 76.1609 161.853 76.1353V77.0532C161.633 77.1073 161.45 77.1895 161.158 77.1895C160.035 77.1895 159.881 76.6109 159.825 76.0474C159.322 76.5716 158.571 77.2623 157.101 77.2623C155.721 77.2623 154.749 76.4018 154.749 75.0974C154.749 74.2117 154.978 72.8924 157.632 72.6974C159.614 72.5382 159.749 72.3867 159.749 71.6081C159.749 70.7895 159.195 70.4051 157.999 70.4051C156.561 70.4051 156.367 71.2817 156.283 71.8466H155.119ZM159.749 73.2338C159.552 73.3903 159.242 73.4987 157.678 73.6995C157.049 73.7852 156.048 73.9589 156.048 74.9002C156.048 75.7175 156.49 76.2174 157.43 76.2174C158.613 76.2174 159.749 75.4673 159.749 74.461V73.2338ZM148.517 69.5716H147.25V77.051H148.517V73.6317H152.043V77.051H153.307V69.5716H152.043V72.5852H148.517V69.5716ZM140.355 69.5716H139.08V77.051H140.412L144.103 71.4524H144.132V77.051H145.401V69.5716H144.07L140.383 75.1694H140.355V69.5716ZM132.866 67.8494C136.106 67.8494 137.674 69.8301 137.674 71.9239C137.674 74.0124 136.119 75.9931 132.866 75.9931V77.051H131.486V75.9931C128.235 75.9931 126.687 74.0124 126.687 71.9239C126.687 69.8301 128.251 67.8494 131.486 67.8494V66.7888H132.866V67.8494ZM131.486 74.9002V68.936C129.552 68.936 128.119 69.8131 128.119 71.9239C128.119 74.0289 129.552 74.9002 131.486 74.9002ZM132.866 68.936V74.9002C134.811 74.9002 136.233 74.0289 136.233 71.9239C136.233 69.8131 134.811 68.936 132.866 68.936ZM231.9 53.9151C234.303 53.9151 235.392 55.9387 235.392 57.8659C235.394 59.7837 234.303 61.8209 231.9 61.8209C229.495 61.8209 228.411 59.7837 228.411 57.8659C228.411 55.9387 229.495 53.9151 231.9 53.9151ZM231.9 60.733C233.709 60.733 234.103 58.8666 234.103 57.8659C234.103 56.8566 233.709 55.0024 231.9 55.0024C230.088 55.0024 229.706 56.8566 229.706 57.8659C229.707 58.8666 230.088 60.733 231.9 60.733ZM222.847 54.1344V61.6081H224.119V55.1801H227.753V54.1344H222.847ZM217.915 53.9151C220.325 53.9151 221.414 55.9387 221.414 57.8659C221.414 59.7837 220.325 61.8209 217.915 61.8209C215.506 61.8209 214.426 59.7837 214.426 57.8659C214.426 55.9387 215.506 53.9151 217.915 53.9151ZM217.915 60.733C219.729 60.733 220.109 58.8666 220.109 57.8659C220.109 56.8566 219.729 55.0024 217.915 55.0024C216.106 55.0024 215.724 56.8566 215.724 57.8659C215.724 58.8666 216.106 60.733 217.915 60.733ZM208.191 54.1344H206.923V61.6081H208.191V58.1837H211.707V61.6081H212.99V54.1344H211.707V57.1381H208.191V54.1344ZM199.15 54.1344H202.574C204.247 54.1344 205.044 55.0044 205.044 56.0387C205.044 56.931 204.434 57.4629 203.772 57.6524C204.576 57.8308 205.486 58.3422 205.486 59.6258C205.486 60.818 204.514 61.6081 202.721 61.6081H199.15V54.1344ZM200.424 57.2194H202.265C203.359 57.2194 203.772 56.9122 203.772 56.0952C203.772 55.5037 203.402 55.1801 202.289 55.1801H200.424V57.2194ZM200.424 60.568H202.692C203.673 60.568 204.214 60.2366 204.214 59.4023C204.214 58.5959 203.583 58.2137 202.56 58.2137H200.424V60.568ZM192.254 54.1344H190.985V61.6081H192.314L196.006 56.0058H196.034V61.6081H197.301V54.1344H195.977L192.286 59.7274H192.254V54.1344ZM183.646 54.1344V55.1801H186.125V61.6081H187.399V55.1801H189.878V54.1344H183.646ZM176.443 56.4101C176.443 54.6116 177.682 53.9166 179.556 53.9166C180.153 53.9166 182.35 54.088 182.35 56.008V60.2781C182.35 60.5916 182.499 60.7495 182.762 60.7495C182.877 60.7495 183.031 60.7166 183.177 60.688V61.6081C182.961 61.6573 182.777 61.7481 182.491 61.7481C181.365 61.7481 181.203 61.1687 181.154 60.6073C180.655 61.1287 179.894 61.8209 178.428 61.8209C177.048 61.8209 176.074 60.9602 176.074 59.6545C176.076 58.7688 176.307 57.4488 178.954 57.2538C180.936 57.0944 181.082 56.9445 181.082 56.1637C181.082 55.3473 180.519 54.9673 179.326 54.9673C177.883 54.9673 177.682 55.8344 177.612 56.4101H176.443ZM181.082 57.7873C180.879 57.9437 180.571 58.0638 178.992 58.2552C178.368 58.3422 177.372 58.5109 177.372 59.4573C177.372 60.2781 177.818 60.7758 178.757 60.7758C179.942 60.7758 181.082 60.0259 181.082 59.0245V57.7873ZM168.465 54.1344H169.649V55.1866C170.061 54.5773 170.614 53.9151 171.926 53.9151C173.926 53.9151 175.049 55.5279 175.049 57.6515C175.049 59.4366 174.339 61.8209 171.771 61.8209C170.757 61.8209 170.093 61.3373 169.733 60.733V64.5617H168.465V54.1344ZM169.733 57.8458C169.733 59.4723 170.376 60.733 171.761 60.733C172.555 60.733 173.753 60.1916 173.753 58.1994C173.753 56.9687 173.625 55.0466 171.789 55.0466C169.827 55.0466 169.733 56.8674 169.733 57.8458ZM163.529 53.9151C165.945 53.9151 167.023 55.9387 167.023 57.8659C167.023 59.7837 165.945 61.8209 163.529 61.8209C161.126 61.8209 160.035 59.7837 160.035 57.8659C160.035 55.9387 161.126 53.9151 163.529 53.9151ZM163.529 60.733C165.346 60.733 165.727 58.8666 165.727 57.8659C165.727 56.8566 165.346 55.0024 163.529 55.0024C161.722 55.0024 161.337 56.8566 161.337 57.8659C161.337 58.8666 161.722 60.733 163.529 60.733ZM152.537 54.1344V61.6081H153.809V55.1801H157.332V61.6081H158.599V54.1344H152.537ZM144.519 54.1344H145.704V55.1866C146.114 54.5773 146.666 53.9151 147.982 53.9151C149.978 53.9151 151.101 55.5279 151.101 57.6515C151.101 59.4366 150.386 61.8209 147.828 61.8209C146.813 61.8209 146.136 61.3373 145.779 60.733V64.5617H144.519V54.1344ZM145.779 57.8458C145.779 59.4723 146.427 60.733 147.807 60.733C148.608 60.733 149.805 60.1916 149.805 58.1994C149.805 56.9687 149.676 55.0466 147.85 55.0466C145.887 55.0466 145.779 56.8674 145.779 57.8458ZM139.581 53.9151C141.991 53.9151 143.074 55.9387 143.074 57.8659C143.074 59.7837 141.991 61.8209 139.581 61.8209C137.172 61.8209 136.092 59.7837 136.092 57.8659C136.092 55.9387 137.172 53.9151 139.581 53.9151ZM139.581 60.733C141.398 60.733 141.778 58.8666 141.778 57.8659C141.778 56.8566 141.398 55.0024 139.581 55.0024C137.774 55.0024 137.383 56.8566 137.383 57.8659C137.383 58.8666 137.774 60.733 139.581 60.733ZM128.616 51.3479H127.227V61.6081H128.616V58.0002L130.241 56.4631L133.867 61.6081H135.679L131.256 55.4844L135.561 51.3479H133.632L128.616 56.3209V51.3479ZM153.495 38.6872H152.227V46.1594H153.495V43.3372L154.565 42.3466L157.006 46.1594H158.515L155.467 41.4658L158.34 38.6872H156.734L153.495 41.9359V38.6872ZM145.704 38.6886H144.427V46.1594H145.704V42.7423H149.217V46.1594H150.49V38.6886H149.217V41.6972H145.704V38.6886ZM136.505 40.9608C136.505 39.1644 137.745 38.4729 139.61 38.4729C140.21 38.4729 142.402 38.6437 142.402 40.5666V44.8315C142.402 45.1472 142.558 45.3009 142.821 45.3009C142.934 45.3009 143.093 45.2737 143.235 45.2408V46.1594C143.025 46.2223 142.834 46.3029 142.548 46.3029C141.422 46.3029 141.266 45.7244 141.206 45.1558C140.707 45.6844 139.951 46.3787 138.487 46.3787C137.102 46.3787 136.138 45.5087 136.138 44.2094C136.138 43.3186 136.365 42.0065 139.008 41.8138C141 41.6544 141.135 41.5022 141.135 40.7194C141.135 39.9008 140.582 39.5186 139.38 39.5186C137.947 39.5186 137.745 40.3972 137.674 40.9608H136.505ZM141.135 42.3466C140.933 42.5036 140.628 42.6129 139.054 42.8094C138.43 42.8936 137.431 43.0673 137.431 44.01C137.431 44.8315 137.877 45.3272 138.819 45.3272C139.999 45.3272 141.135 44.5801 141.135 43.5765V42.3466ZM134.506 35.9043V37.1279H128.616V40.1422H131.988C134.237 40.1422 135.093 41.8493 135.093 43.2787C135.093 44.9337 133.899 46.1594 132.026 46.1594H127.227V35.9043H134.506ZM128.616 44.9337H131.618C132.766 44.9337 133.651 44.5508 133.651 43.263C133.651 41.8794 132.766 41.3673 131.518 41.3673H128.616V44.9337ZM74.6813 35.6758H65.412L46.9383 54.4552V43.9522C46.6517 44.1672 46.319 44.3065 45.995 44.3666C45.9014 44.3852 45.7788 44.398 45.6334 44.398H45.619C45.1587 44.398 44.6518 44.2465 44.2392 43.8837C42.6137 42.4451 40.4583 39.6893 39.6741 38.4008C39.6741 38.39 39.6741 38.3843 39.6603 38.383V77.0788H46.9383V63.1787L52.9164 57.2516L66.6471 77.0788H75.7284L57.9648 52.1894L74.6813 35.6758ZM98.7701 45.9644V66.148C105.162 65.3931 109.453 62.9466 109.453 56.2023C109.454 49.4551 105.1 46.603 98.7701 45.9644ZM91.4403 45.9644C85.1109 46.603 80.7667 49.4551 80.7667 56.2023C80.7667 62.9466 85.0488 65.3931 91.4403 66.148V45.9644ZM98.7701 72.4331V77.0788H91.4403V72.4331C82.5276 72.248 73.4369 67.0158 73.4369 56.2023C73.4369 45.6758 81.8794 39.9737 91.4403 39.6787V35.6758H98.7701V39.6787C108.5 40.0294 116.774 45.6758 116.774 56.2023C116.774 67.0158 107.744 72.248 98.7701 72.4331ZM19.4121 57.4188H7.32994V71.1459H19.5295C24.3381 71.1459 26.742 68.883 26.742 64.4067C26.742 60.0403 23.9909 57.4188 19.4121 57.4188ZM19.8247 77.0788H0V35.6758H30.7251V41.9522H7.32994V51.4894H19.8247C28.973 51.4894 34.0726 56.0866 34.0726 64.2252C34.0726 72.4331 28.9162 77.0795 19.8247 77.0788Z" fill="white"/>
</svg>
