<svg width="200" height="40" viewBox="0 0 200 40" fill="none" xmlns="http://www.w3.org/2000/svg">
<path d="M7.71896 15.4087V39.3528C7.39604 39.38 7.1245 39.4201 6.85296 39.4218C4.89158 39.4273 2.93004 39.3946 0.968507 39.4401C0.216507 39.4582 -0.00364713 39.2311 0.00204517 38.5172C0.034199 34.8855 0.017122 31.254 0.017122 27.6206C0.019122 19.8433 0.0323516 12.0641 4.39246e-05 4.28498C-0.00364838 3.42758 0.224197 3.12236 1.15466 3.15679C2.92435 3.22405 4.69789 3.20771 6.46758 3.16047C7.17204 3.14237 7.62973 3.364 8.07973 3.87262C14.5737 11.2229 21.0868 18.5571 27.5942 25.8947C27.8922 26.2308 28.198 26.5614 28.7296 26.8339V25.7966V4.36681C28.7296 3.17857 28.7334 3.17681 29.9791 3.17681C31.7185 3.17504 33.4597 3.2005 35.1989 3.16592C35.8692 3.15326 36.156 3.30587 36.1542 4.01611C36.1351 15.5776 36.1371 27.1409 36.1485 38.7025C36.1485 39.2711 35.9776 39.5326 35.3453 39.5254C33.5413 39.5036 31.7374 39.5563 29.9373 39.4908C29.5405 39.4764 29.0562 39.1802 28.7828 38.8751C22.0134 31.352 15.2668 23.811 8.5145 16.2752C8.31512 16.0481 8.10619 15.8284 7.71896 15.4087V15.4087ZM120.769 39.5218V35.7685C118.802 37.9958 116.385 39.0658 113.674 39.5981C107.3 40.8498 100.509 38.0794 97.0083 32.8146C90.2978 22.7246 96.8526 9.6915 109.312 8.50709C113.252 8.13284 116.969 9.01938 120.32 11.5011V0.00121214C122.563 0.00121214 124.674 -0.00776481 126.785 0.0231405C126.934 0.0249065 127.145 0.306439 127.209 0.495403C127.286 0.713359 127.238 0.973258 127.238 1.21667V38.2629C127.238 39.5182 127.234 39.52 125.949 39.5218C124.251 39.5237 122.552 39.5218 120.769 39.5218V39.5218ZM101.438 24.1726C101.429 29.1321 105.578 33.1379 110.728 33.1433C115.917 33.1488 120.068 29.2084 120.1 24.2451C120.132 19.282 115.997 15.2543 110.848 15.2362C105.592 15.218 101.448 19.1547 101.438 24.1726ZM139.805 28.9251C142.298 33.2706 149.255 35.8503 154.66 31.0541C155.366 30.4275 155.854 29.5791 156.497 28.8778C156.698 28.6599 157.125 28.4163 157.363 28.4781C159.277 28.9758 161.172 29.5464 163.369 30.1785C162.52 31.4993 161.883 32.8237 160.941 33.9064C156.432 39.0767 150.628 41.0879 143.818 39.4346C136.983 37.7741 132.789 33.3269 131.683 26.6778C130.174 17.6233 136.626 9.76788 145.794 8.59068C155.297 7.36992 162.455 13.6974 164.125 21.5746C164.268 22.2523 164.12 22.572 163.335 22.7737C155.806 24.7049 148.291 26.6869 140.771 28.6544C140.469 28.7324 140.171 28.8214 139.805 28.9251V28.9251ZM155.877 18.8605C154.526 15.9157 150.074 13.1542 145.021 14.891C141.111 16.2336 137.785 20.6045 138.691 23.3823C144.411 21.8763 150.137 20.3719 155.877 18.8605V18.8605ZM193.505 39.5218V35.5232C192.154 36.497 190.88 37.7197 189.354 38.4645C184.18 40.9843 179.129 40.1995 174.44 37.2891C168.706 33.732 165.998 27.299 167.338 21.0514C168.688 14.7601 173.857 9.86604 180.568 8.69061C189.221 7.1736 197.849 12.4148 199.626 21.2258C199.846 22.3176 199.969 23.4458 199.977 24.5577C200.011 29.1903 199.968 33.8228 200 38.4536C200.006 39.2857 199.746 39.5655 198.871 39.5382C197.108 39.4836 195.345 39.5218 193.505 39.5218V39.5218ZM192.815 24.1979C192.82 19.2256 188.691 15.2434 183.518 15.2362C178.281 15.2288 174.148 19.1947 174.155 24.2198C174.161 29.1304 178.308 33.1307 183.398 33.1433C188.646 33.1561 192.809 29.2011 192.815 24.1979V24.1979ZM56.7203 8.43262C65.7892 8.43616 73.1852 15.5304 73.1757 24.2196C73.1681 32.8854 65.7437 39.9524 56.6538 39.9506C47.5642 39.9487 40.2233 32.8873 40.2365 24.1561C40.2497 15.4269 47.5849 8.42894 56.7203 8.43262ZM56.7317 15.2397C51.5308 15.2271 47.3666 19.1547 47.3382 24.1016C47.3097 29.0812 51.4226 33.1179 56.5514 33.1433C61.7618 33.1688 65.9962 29.192 66.0418 24.2288C66.0892 19.34 61.8529 15.2524 56.7317 15.2397V15.2397ZM84.3923 12.5511C86.8646 9.03219 90.9775 8.18553 93.5998 8.52711C93.5998 10.5 93.6187 12.4893 93.5675 14.4786C93.5637 14.6639 93.1441 14.931 92.8726 15C92.0541 15.2107 91.1826 15.258 90.3851 15.5214C87.0544 16.6205 85.3341 19.0003 84.7854 22.2268C84.6297 23.1461 84.586 24.0907 84.5821 25.0245C84.5651 29.4428 84.5785 33.8611 84.5803 38.2792V39.4364H77.3305C77.3115 39.095 77.2792 38.7769 77.2792 38.4573C77.2774 29.1067 77.2888 19.7562 77.2564 10.4056C77.2526 9.54448 77.5355 9.32638 78.3825 9.35552C80.0249 9.40997 81.6732 9.42086 83.3157 9.35184C84.2234 9.31372 84.4835 9.63351 84.4057 10.4437C84.3429 11.0705 84.3923 11.7045 84.3923 12.5511V12.5511Z" fill="white"/>
</svg>
