<svg width="200" height="40" viewBox="0 0 200 40" fill="none" xmlns="http://www.w3.org/2000/svg">
<path fill-rule="evenodd" clip-rule="evenodd" d="M200 19.9364V19.66H191.021V20C191.021 27.1145 183.734 32.8855 174.752 32.8855C165.77 32.8855 158.483 27.1145 158.483 20C158.483 12.8855 165.77 7.11455 174.752 7.11455H175.02V0H174.752C160.825 0 149.504 8.96727 149.504 20C149.504 31.0327 160.823 40 174.752 40C188.681 40 200 31.0327 200 20V19.9364V19.9364ZM83.3292 0.723636L67.0877 39.2764H76.3646L78.1932 34.9527C78.4613 34.3345 78.9201 33.9527 79.915 33.9527H94.7573C95.7522 33.9527 96.2338 34.3345 96.4768 34.9527L98.3054 39.2764H107.582L91.3409 0.723636H83.3292ZM91.7997 27.2418H82.8431C81.9026 27.2418 81.3643 26.7945 81.6846 26.0273L86.3912 14.8236C86.8228 13.8236 87.87 13.8236 88.2743 14.8236L92.9264 26.0273C93.2762 26.8364 92.7379 27.2418 91.7975 27.2418H91.7997ZM135.093 23.94C135.872 25.1327 137.083 24.8782 137.083 23.5582V0.721818H146.035V39.2545H135.2L119.737 16.06C118.958 14.8673 117.748 15.1218 117.748 16.4418V39.2764H108.795V0.723636H120.169L135.093 23.9418V23.94ZM45.9533 31.1818V0.723636H36.9988V39.2764H65.7702V32.5455H47.7023C47.4729 32.5564 47.2432 32.529 47.0278 32.4648C46.8124 32.4007 46.6161 32.3012 46.4515 32.1729C46.2869 32.0445 46.1575 31.8901 46.0717 31.7194C45.9859 31.5488 45.9456 31.3657 45.9533 31.1818ZM32.0514 11.3527C32.0514 14.6109 30.2751 17.2745 27.1835 19.0618C30.8657 21.0218 33.0713 24.3455 33.0713 28.0727C33.0713 34.5473 27.2358 39.2764 19.4376 39.2764H0V0.723636H18.4722C26.8632 0.723636 32.0514 5.09091 32.0514 11.3527ZM10.2151 7.07091C9.43598 7.07091 8.95214 7.45455 8.95214 8.07091V15.3982C8.95214 15.9964 9.43598 16.4436 10.2151 16.4436H16.8321C20.1667 16.4436 22.5337 14.42 22.5337 11.7564C22.5337 9.13818 20.194 7.07091 16.8321 7.07091H10.2174H10.2151ZM10.3241 32.8436H16.9639C20.9163 32.8436 23.3651 30.6491 23.3923 27.7745C23.3923 24.9418 20.9163 22.7909 16.9911 22.7909H10.3264C9.51775 22.7909 8.95441 23.2582 8.95441 23.9182V31.7582C8.95441 32.3945 9.54501 32.8436 10.3264 32.8436H10.3241Z" fill="white"/>
</svg>
