<svg width="200" height="40" viewBox="0 0 200 40" fill="none" xmlns="http://www.w3.org/2000/svg">
<path d="M177.224 20.1227C177.224 14.8892 173.023 10.6559 167.089 10.6559C161.273 10.6559 157.13 14.7266 157.13 20.3195C157.13 25.9407 161.389 30.0397 167.5 30.0397C171.378 30.0397 174.638 28.4055 176.665 25.0818L172.553 23.2815C171.584 24.9428 169.468 26.0232 167.5 26.0232C165.004 26.0232 162.125 24.2512 161.948 21.7875H177.076C177.174 21.2373 177.223 20.6812 177.224 20.1227ZM162.035 18.5227C162.389 16.0308 164.209 14.3979 167.118 14.3979C169.996 14.3979 171.759 15.9979 171.994 18.5227H162.035ZM120.594 10.6523C114.63 10.6523 110.4 14.6959 110.4 20.4008C110.4 26.0491 114.63 30.0373 120.653 30.0373C126.704 30.0373 130.934 26.0491 130.934 20.4844C130.935 14.7513 126.588 10.6523 120.594 10.6523ZM120.654 25.7993C117.657 25.7993 115.807 23.6951 115.807 20.4279C115.807 17.1054 117.687 14.835 120.654 14.835C123.65 14.835 125.53 17.0771 125.53 20.4279C125.53 23.7233 123.679 25.7993 120.654 25.7993ZM99.3591 10.6571C96.9166 10.6571 95.0753 11.4441 93.2353 13.394H92.6316C91.3953 11.6326 89.3778 10.6571 87.1153 10.6571C84.8228 10.6358 82.6591 11.6538 81.3003 13.394H80.6966L80.6666 13.3669V11.0364H75.6104V29.6285H81.0728V20.0603C81.0728 16.971 82.4528 15.1554 84.8403 15.1554C87.0541 15.1554 88.4916 16.7012 88.4916 19.0576V29.6285H93.9828V20.0603C93.9828 16.9934 95.3628 15.1554 97.7791 15.1554C99.9628 15.1554 101.372 16.7012 101.372 19.0859V29.6285H106.864V18.4615C106.864 13.612 104.103 10.6571 99.3591 10.6571ZM189.373 23.1814H188.983C188.983 22.8503 186.6 16.9628 185.039 13.3151L184.063 11.0341H178.559L186.368 29.6909L183.291 36.8002H188.758L200 11.04H194.493L193.594 12.9911L190.549 20.0933C189.69 22.0774 189.339 22.9976 189.373 23.1814ZM146.086 10.6571C143.641 10.6571 141.543 11.6597 140.134 13.4494H139.558L139.501 13.4223V11.0364H134.443V29.6285H139.905V20.1157C139.905 17.0806 141.461 15.1825 144.018 15.1825C146.404 15.1825 148.158 16.8627 148.158 19.5183V29.6273H153.62V18.4096C153.621 13.8559 150.459 10.6571 146.086 10.6571Z" fill="white"/>
<path d="M38.5062 0C26.7025 0 17.2187 9.0003 17.2187 20C17.2187 31.0904 26.7962 40 38.5037 40C50.2112 40 59.7974 30.9997 59.7974 20C59.7974 9.0003 50.2137 0 38.5062 0ZM38.5062 27.4545C34.1524 27.4545 30.5737 24.0907 30.5737 20C30.5737 15.9093 34.1524 12.5455 38.5062 12.5455C42.8599 12.5455 46.4399 15.9093 46.4399 20C46.3424 24.0907 42.8599 27.4545 38.5062 27.4545ZM17.2187 5.8109V34.9019H9.67623L0 5.8109H17.2187Z" fill="white"/>
</svg>
